<?xml version="1.0" encoding="UTF-8" standalone="no"?><!DOCTYPE svg PUBLIC "-//W3C//DTD SVG 1.1//EN" "http://www.w3.org/Graphics/SVG/1.1/DTD/svg11.dtd"><svg width="100%" height="100%" viewBox="0 0 374 131" version="1.1" xmlns="http://www.w3.org/2000/svg" xmlns:xlink="http://www.w3.org/1999/xlink" xml:space="preserve" xmlns:serif="http://www.serif.com/" style="fill-rule:evenodd;clip-rule:evenodd;stroke-linejoin:round;stroke-miterlimit:1.41421;"><g><rect x="6.021" y="57.987" width="215.346" height="15" style="fill:#4b535c;"/><circle cx="308.44" cy="65.487" r="38.445" style="fill:#f2f5fd;"/><path d="M308.783,12.043l0.342,0.003l0.345,0.005l0.342,0.008l0.341,0.01l0.342,0.012l0.342,0.014l0.34,0.016l0.34,0.018l0.342,0.021l0.338,0.022l0.337,0.025l0.341,0.027l0.337,0.029l0.335,0.031l0.339,0.033l0.336,0.035l0.336,0.038l0.336,0.039l0.332,0.042l0.334,0.043l0.334,0.046l0.333,0.048l0.333,0.049l0.332,0.052l0.33,0.054l0.33,0.056l0.331,0.058l0.329,0.06l0.327,0.061l0.328,0.064l0.326,0.066l0.328,0.068l0.326,0.07l0.323,0.072l0.325,0.074l0.324,0.076l0.321,0.077l0.323,0.08l0.322,0.082l0.32,0.084l0.318,0.085l0.32,0.087l0.319,0.09l0.317,0.091l0.317,0.093l0.314,0.095l0.315,0.097l0.316,0.099l0.312,0.101l0.312,0.102l0.312,0.105l0.309,0.106l0.31,0.108l0.31,0.11l0.309,0.112l0.307,0.114l0.304,0.115l0.306,0.117l0.306,0.119l0.303,0.121l0.302,0.123l0.301,0.124l0.301,0.126l0.299,0.128l0.299,0.13l0.301,0.132l0.295,0.133l0.295,0.134l0.295,0.137l0.294,0.138l0.293,0.141l0.29,0.141l0.294,0.145l0.289,0.145l0.286,0.145l0.29,0.15l0.288,0.15l0.285,0.152l0.283,0.153l0.286,0.156l0.28,0.156l0.28,0.158l0.285,0.163l0.276,0.16l0.277,0.162l0.279,0.166l0.278,0.168l0.276,0.169l0.271,0.168l0.272,0.171l0.273,0.174l0.269,0.174l0.268,0.175l0.268,0.177l0.271,0.182l0.264,0.181l0.262,0.18l0.268,0.187l0.261,0.184l0.258,0.185l0.261,0.189l0.261,0.192l0.254,0.189l0.258,0.194l0.259,0.197l0.25,0.194l0.253,0.196l0.251,0.199l0.249,0.199l0.252,0.205l0.247,0.203l0.246,0.204l0.247,0.207l0.241,0.205l0.242,0.208l0.242,0.212l0.24,0.211l0.242,0.216l0.239,0.216l0.231,0.212l0.234,0.217l0.235,0.22l0.234,0.221l0.232,0.223l0.227,0.22l0.228,0.224l0.228,0.227l0.227,0.228l0.221,0.226l0.223,0.228l0.226,0.237l0.218,0.229l0.216,0.231l0.219,0.236l0.217,0.238l0.216,0.239l0.21,0.236l0.212,0.239l0.213,0.245l0.208,0.242l0.207,0.243l0.206,0.245l0.202,0.243l0.205,0.249l0.204,0.253l0.2,0.25l0.196,0.247l0.199,0.255l0.196,0.253l0.195,0.257l0.194,0.257l0.191,0.257l0.189,0.258l0.188,0.259l0.186,0.26l0.185,0.262l0.187,0.267l0.18,0.262l0.18,0.265l0.182,0.271l0.176,0.265l0.175,0.268l0.176,0.272l0.174,0.274l0.17,0.271l0.172,0.275l0.169,0.277l0.164,0.272l0.166,0.279l0.161,0.274l0.162,0.28l0.161,0.281l0.16,0.283l0.156,0.282l0.155,0.284l0.154,0.285l0.152,0.285l0.15,0.286l0.149,0.289l0.145,0.286l0.145,0.289l0.147,0.297l0.14,0.289l0.139,0.29l0.141,0.3l0.135,0.292l0.134,0.292l0.135,0.301l0.132,0.3l0.129,0.297l0.126,0.295l0.127,0.302l0.126,0.305l0.123,0.305l0.118,0.297l0.12,0.306l0.118,0.307l0.116,0.308l0.113,0.307l0.11,0.302l0.11,0.309l0.111,0.316l0.106,0.311l0.104,0.31l0.102,0.311l0.101,0.313l0.098,0.313l0.096,0.312l0.097,0.321l0.092,0.314l0.091,0.314l0.09,0.323l0.089,0.323l0.084,0.316l0.083,0.316l0.082,0.324l0.081,0.325l0.076,0.318l0.077,0.326l0.074,0.326l0.071,0.319l0.07,0.328l0.068,0.327l0.066,0.328l0.064,0.328l0.062,0.329l0.06,0.328l0.058,0.329l0.056,0.33l0.053,0.331l0.052,0.33l0.051,0.337l0.047,0.332l0.045,0.332l0.043,0.33l0.042,0.332l0.041,0.348l0.036,0.332l0.035,0.332l0.033,0.334l0.032,0.34l0.029,0.341l0.026,0.334l0.025,0.341l0.023,0.341l0.02,0.342l0.018,0.334l0.017,0.342l0.014,0.342l0.012,0.343l0.01,0.342l0.007,0.335l0.006,0.343l0.003,0.35l0.001,0.343l-0.001,0.343l-0.003,0.35l-0.006,0.342l-0.007,0.335l-0.01,0.343l-0.012,0.342l-0.014,0.342l-0.017,0.342l-0.018,0.335l-0.02,0.341l-0.023,0.341l-0.025,0.342l-0.026,0.333l-0.029,0.341l-0.032,0.341l-0.033,0.333l-0.035,0.333l-0.036,0.332l-0.041,0.347l-0.042,0.332l-0.043,0.331l-0.045,0.332l-0.047,0.33l-0.051,0.339l-0.052,0.33l-0.053,0.33l-0.056,0.329l-0.058,0.33l-0.06,0.329l-0.062,0.329l-0.064,0.329l-0.066,0.327l-0.068,0.327l-0.07,0.327l-0.071,0.319l-0.074,0.326l-0.076,0.326l-0.077,0.318l-0.081,0.325l-0.082,0.324l-0.083,0.317l-0.084,0.316l-0.089,0.323l-0.09,0.321l-0.091,0.315l-0.092,0.315l-0.097,0.32l-0.096,0.314l-0.099,0.313l-0.1,0.31l-0.102,0.312l-0.104,0.31l-0.106,0.312l-0.111,0.317l-0.11,0.307l-0.109,0.301l-0.114,0.31l-0.116,0.306l-0.118,0.307l-0.12,0.306l-0.118,0.298l-0.123,0.304l-0.126,0.304l-0.127,0.305l-0.127,0.295l-0.127,0.294l-0.133,0.302l-0.135,0.301l-0.134,0.292l-0.136,0.293l-0.139,0.297l-0.139,0.29l-0.142,0.292l-0.146,0.296l-0.144,0.287l-0.147,0.289l-0.148,0.287l-0.149,0.285l-0.153,0.286l-0.154,0.286l-0.155,0.283l-0.156,0.282l-0.16,0.283l-0.161,0.282l-0.162,0.279l-0.161,0.274l-0.167,0.281l-0.163,0.27l-0.169,0.277l-0.173,0.278l-0.168,0.267l-0.175,0.275l-0.176,0.273l-0.174,0.266l-0.178,0.269l-0.181,0.269l-0.179,0.263l-0.181,0.263l-0.187,0.268l-0.185,0.261l-0.186,0.26l-0.188,0.259l-0.189,0.258l-0.193,0.259l-0.192,0.256l-0.194,0.254l-0.199,0.258l-0.197,0.252l-0.196,0.248l-0.201,0.252l-0.202,0.248l-0.204,0.249l-0.204,0.246l-0.206,0.244l-0.208,0.245l-0.209,0.242l-0.21,0.241l-0.213,0.242l-0.212,0.238l-0.214,0.236l-0.215,0.236l-0.219,0.236l-0.218,0.233l-0.219,0.232l-0.225,0.234l-0.223,0.229l-0.223,0.228l-0.223,0.224l-0.228,0.227l-0.232,0.227l-0.227,0.221l-0.23,0.22l-0.232,0.22l-0.235,0.22l-0.236,0.219l-0.233,0.213l-0.239,0.216l-0.238,0.212l-0.24,0.212l-0.244,0.213l-0.242,0.208l-0.244,0.207l-0.244,0.206l-0.246,0.204l-0.247,0.202l-0.25,0.203l-0.254,0.203l-0.248,0.197l-0.253,0.197l-0.253,0.195l-0.254,0.194l-0.257,0.194l-0.26,0.193l-0.258,0.189l-0.259,0.188l-0.262,0.188l-0.262,0.185l-0.262,0.183l-0.265,0.182l-0.267,0.182l-0.266,0.178l-0.267,0.178l-0.271,0.177l-0.269,0.174l-0.273,0.173l-0.272,0.171l-0.274,0.17l-0.276,0.169l-0.275,0.166l-0.276,0.164l-0.28,0.165l-0.279,0.162l-0.279,0.159l-0.283,0.159l-0.282,0.157l-0.283,0.155l-0.286,0.154l-0.282,0.15l-0.289,0.152l-0.291,0.15l-0.283,0.144l-0.292,0.146l-0.291,0.144l-0.289,0.141l-0.298,0.142l-0.295,0.139l-0.292,0.135l-0.295,0.135l-0.297,0.133l-0.295,0.13l-0.303,0.132l-0.299,0.127l-0.3,0.126l-0.304,0.125l-0.3,0.122l-0.305,0.122l-0.304,0.119l-0.302,0.116l-0.307,0.115l-0.311,0.116l-0.309,0.112l-0.306,0.108l-0.309,0.108l-0.311,0.107l-0.311,0.104l-0.313,0.103l-0.312,0.1l-0.314,0.099l-0.317,0.097l-0.316,0.096l-0.317,0.093l-0.315,0.091l-0.319,0.089l-0.32,0.088l-0.316,0.084l-0.323,0.085l-0.321,0.081l-0.321,0.08l-0.325,0.078l-0.322,0.076l-0.324,0.073l-0.326,0.072l-0.326,0.07l-0.325,0.068l-0.327,0.066l-0.328,0.064l-0.329,0.062l-0.325,0.059l-0.329,0.058l-0.334,0.057l-0.334,0.054l-0.329,0.051l-0.332,0.05l-0.335,0.048l-0.33,0.045l-0.332,0.043l-0.336,0.042l-0.336,0.04l-0.336,0.037l-0.336,0.035l-0.337,0.034l-0.34,0.031l-0.338,0.029l-0.333,0.026l-0.341,0.025l-0.342,0.023l-0.334,0.02l-0.342,0.019l-0.345,0.016l-0.339,0.014l-0.338,0.012l-0.346,0.01l-0.343,0.007l-0.339,0.006l-0.346,0.003l-0.343,0.001l-0.343,-0.001l-0.346,-0.003l-0.339,-0.006l-0.343,-0.007l-0.346,-0.01l-0.338,-0.012l-0.339,-0.014l-0.345,-0.016l-0.342,-0.019l-0.335,-0.02l-0.341,-0.023l-0.341,-0.025l-0.334,-0.026l-0.337,-0.029l-0.341,-0.031l-0.336,-0.034l-0.336,-0.035l-0.337,-0.037l-0.336,-0.04l-0.335,-0.042l-0.332,-0.043l-0.331,-0.045l-0.335,-0.048l-0.331,-0.05l-0.33,-0.051l-0.333,-0.054l-0.334,-0.057l-0.329,-0.058l-0.325,-0.059l-0.329,-0.062l-0.328,-0.064l-0.328,-0.066l-0.324,-0.068l-0.327,-0.07l-0.327,-0.072l-0.322,-0.073l-0.321,-0.076l-0.326,-0.078l-0.321,-0.08l-0.321,-0.081l-0.323,-0.085l-0.317,-0.084l-0.319,-0.088l-0.318,-0.089l-0.316,-0.091l-0.317,-0.093l-0.317,-0.096l-0.316,-0.097l-0.314,-0.099l-0.312,-0.1l-0.314,-0.103l-0.31,-0.104l-0.311,-0.107l-0.31,-0.108l-0.305,-0.108l-0.309,-0.112l-0.312,-0.116l-0.306,-0.115l-0.302,-0.116l-0.304,-0.119l-0.306,-0.122l-0.3,-0.122l-0.304,-0.125l-0.301,-0.126l-0.298,-0.128l-0.3,-0.13l-0.296,-0.13l-0.298,-0.134l-0.295,-0.135l-0.292,-0.135l-0.295,-0.139l-0.298,-0.142l-0.29,-0.142l-0.29,-0.143l-0.29,-0.145l-0.285,-0.145l-0.292,-0.15l-0.289,-0.152l-0.282,-0.15l-0.285,-0.154l-0.283,-0.155l-0.283,-0.157l-0.283,-0.159l-0.278,-0.159l-0.28,-0.162l-0.28,-0.165l-0.276,-0.164l-0.275,-0.166l-0.275,-0.169l-0.276,-0.171l-0.27,-0.17l-0.271,-0.172l-0.272,-0.175l-0.27,-0.177l-0.27,-0.179l-0.263,-0.177l-0.266,-0.181l-0.266,-0.183l-0.263,-0.183l-0.261,-0.185l-0.263,-0.188l-0.259,-0.188l-0.258,-0.189l-0.261,-0.195l-0.255,-0.192l-0.253,-0.192l-0.255,-0.197l-0.252,-0.197l-0.25,-0.198l-0.254,-0.203l-0.246,-0.2l-0.247,-0.202l-0.248,-0.206l-0.245,-0.206l-0.243,-0.207l-0.244,-0.21l-0.243,-0.211l-0.239,-0.212l-0.238,-0.212l-0.237,-0.214l-0.235,-0.215l-0.237,-0.219l-0.235,-0.22l-0.231,-0.22l-0.23,-0.22l-0.227,-0.221l-0.232,-0.227l-0.228,-0.227l-0.223,-0.224l-0.226,-0.23l-0.222,-0.229l-0.221,-0.23l-0.219,-0.232l-0.22,-0.235l-0.219,-0.236l-0.215,-0.236l-0.214,-0.236l-0.213,-0.238l-0.213,-0.242l-0.21,-0.241l-0.208,-0.242l-0.209,-0.245l-0.205,-0.244l-0.204,-0.246l-0.205,-0.249l-0.201,-0.248l-0.201,-0.252l-0.198,-0.251l-0.195,-0.249l-0.199,-0.258l-0.194,-0.254l-0.191,-0.253l-0.194,-0.262l-0.189,-0.258l-0.188,-0.259l-0.188,-0.262l-0.185,-0.262l-0.183,-0.262l-0.184,-0.266l-0.18,-0.266l-0.177,-0.264l-0.18,-0.271l-0.176,-0.269l-0.174,-0.27l-0.174,-0.272l-0.17,-0.27l-0.172,-0.278l-0.167,-0.274l-0.165,-0.273l-0.166,-0.278l-0.164,-0.28l-0.162,-0.279l-0.159,-0.279l-0.16,-0.283l-0.156,-0.282l-0.155,-0.283l-0.153,-0.283l-0.152,-0.286l-0.151,-0.288l-0.15,-0.29l-0.147,-0.289l-0.142,-0.284l-0.145,-0.293l-0.143,-0.295l-0.14,-0.293l-0.139,-0.294l-0.135,-0.293l-0.134,-0.292l-0.134,-0.298l-0.133,-0.302l-0.129,-0.297l-0.127,-0.299l-0.128,-0.304l-0.124,-0.301l-0.122,-0.301l-0.12,-0.301l-0.12,-0.306l-0.117,-0.307l-0.115,-0.303l-0.114,-0.309l-0.113,-0.312l-0.109,-0.307l-0.108,-0.307l-0.106,-0.311l-0.104,-0.311l-0.104,-0.315l-0.099,-0.31l-0.099,-0.313l-0.098,-0.318l-0.095,-0.316l-0.094,-0.318l-0.09,-0.315l-0.09,-0.318l-0.087,-0.319l-0.085,-0.316l-0.084,-0.324l-0.082,-0.321l-0.079,-0.321l-0.079,-0.326l-0.075,-0.322l-0.073,-0.322l-0.073,-0.327l-0.07,-0.327l-0.067,-0.323l-0.066,-0.327l-0.064,-0.329l-0.062,-0.325l-0.06,-0.329l-0.058,-0.334l-0.056,-0.329l-0.054,-0.333l-0.052,-0.331l-0.049,-0.327l-0.048,-0.334l-0.046,-0.339l-0.043,-0.332l-0.042,-0.332l-0.039,-0.336l-0.037,-0.336l-0.036,-0.336l-0.033,-0.337l-0.031,-0.337l-0.029,-0.337l-0.027,-0.341l-0.025,-0.338l-0.022,-0.337l-0.021,-0.342l-0.018,-0.342l-0.016,-0.338l-0.014,-0.342l-0.012,-0.342l-0.01,-0.339l-0.008,-0.346l-0.005,-0.343l-0.003,-0.342l-0.001,-0.343l0.001,-0.343l0.003,-0.343l0.005,-0.342l0.008,-0.347l0.01,-0.338l0.012,-0.343l0.014,-0.342l0.016,-0.338l0.018,-0.342l0.021,-0.341l0.022,-0.338l0.025,-0.338l0.027,-0.341l0.029,-0.337l0.031,-0.337l0.033,-0.337l0.036,-0.335l0.037,-0.336l0.04,-0.337l0.041,-0.332l0.043,-0.331l0.046,-0.339l0.048,-0.335l0.049,-0.326l0.052,-0.331l0.054,-0.334l0.056,-0.33l0.058,-0.332l0.06,-0.329l0.061,-0.325l0.065,-0.328l0.066,-0.328l0.067,-0.324l0.07,-0.327l0.073,-0.327l0.073,-0.322l0.075,-0.322l0.079,-0.326l0.079,-0.321l0.082,-0.32l0.084,-0.324l0.085,-0.315l0.087,-0.32l0.09,-0.319l0.09,-0.314l0.094,-0.318l0.095,-0.318l0.098,-0.315l0.098,-0.313l0.101,-0.313l0.103,-0.315l0.104,-0.309l0.106,-0.312l0.107,-0.305l0.11,-0.309l0.113,-0.312l0.114,-0.308l0.115,-0.304l0.117,-0.307l0.12,-0.306l0.12,-0.3l0.122,-0.302l0.125,-0.302l0.126,-0.301l0.128,-0.299l0.13,-0.3l0.132,-0.3l0.134,-0.298l0.134,-0.292l0.135,-0.292l0.139,-0.297l0.141,-0.293l0.141,-0.292l0.146,-0.294l0.143,-0.286l0.145,-0.286l0.151,-0.292l0.151,-0.289l0.152,-0.285l0.153,-0.282l0.155,-0.284l0.156,-0.282l0.16,-0.283l0.159,-0.279l0.162,-0.279l0.164,-0.28l0.165,-0.276l0.166,-0.275l0.167,-0.274l0.171,-0.275l0.172,-0.274l0.173,-0.271l0.174,-0.27l0.177,-0.27l0.178,-0.268l0.178,-0.266l0.182,-0.267l0.182,-0.264l0.183,-0.263l0.185,-0.261l0.188,-0.263l0.188,-0.259l0.189,-0.258l0.193,-0.259l0.192,-0.255l0.195,-0.257l0.196,-0.253l0.197,-0.252l0.198,-0.25l0.2,-0.25l0.204,-0.253l0.204,-0.249l0.203,-0.243l0.205,-0.245l0.207,-0.243l0.209,-0.242l0.213,-0.245l0.211,-0.239l0.211,-0.236l0.216,-0.239l0.217,-0.238l0.218,-0.236l0.219,-0.233l0.217,-0.229l0.223,-0.233l0.222,-0.228l0.224,-0.228l0.227,-0.228l0.228,-0.227l0.228,-0.224l0.227,-0.22l0.232,-0.223l0.233,-0.221l0.235,-0.22l0.235,-0.217l0.233,-0.213l0.237,-0.215l0.242,-0.216l0.24,-0.211l0.24,-0.21l0.244,-0.21l0.241,-0.205l0.247,-0.207l0.248,-0.206l0.247,-0.203l0.248,-0.201l0.249,-0.2l0.253,-0.2l0.252,-0.196l0.253,-0.196l0.257,-0.195l0.256,-0.193l0.256,-0.19l0.26,-0.192l0.262,-0.189l0.258,-0.185l0.261,-0.184l0.268,-0.187l0.263,-0.182l0.263,-0.179l0.269,-0.18l0.27,-0.179l0.267,-0.175l0.272,-0.175l0.271,-0.173l0.27,-0.17l0.273,-0.169l0.276,-0.169l0.277,-0.168l0.279,-0.166l0.277,-0.162l0.277,-0.16l0.284,-0.163l0.28,-0.158l0.281,-0.156l0.286,-0.156l0.283,-0.153l0.285,-0.152l0.287,-0.15l0.29,-0.15l0.288,-0.146l0.287,-0.144l0.293,-0.145l0.292,-0.141l0.293,-0.141l0.294,-0.138l0.295,-0.137l0.295,-0.134l0.296,-0.133l0.301,-0.133l0.297,-0.129l0.298,-0.127l0.303,-0.127l0.301,-0.124l0.301,-0.123l0.304,-0.121l0.306,-0.119l0.305,-0.117l0.305,-0.115l0.307,-0.114l0.309,-0.112l0.31,-0.11l0.309,-0.108l0.31,-0.106l0.312,-0.105l0.312,-0.102l0.312,-0.101l0.315,-0.099l0.315,-0.097l0.315,-0.095l0.317,-0.093l0.318,-0.091l0.318,-0.09l0.319,-0.087l0.318,-0.085l0.32,-0.084l0.323,-0.082l0.322,-0.08l0.323,-0.077l0.323,-0.076l0.324,-0.074l0.323,-0.072l0.327,-0.07l0.328,-0.068l0.326,-0.066l0.328,-0.064l0.327,-0.061l0.329,-0.06l0.331,-0.058l0.33,-0.056l0.33,-0.054l0.331,-0.052l0.333,-0.049l0.333,-0.048l0.335,-0.046l0.334,-0.043l0.331,-0.042l0.336,-0.039l0.337,-0.038l0.336,-0.035l0.338,-0.033l0.335,-0.031l0.338,-0.029l0.341,-0.027l0.337,-0.025l0.338,-0.022l0.341,-0.021l0.341,-0.018l0.34,-0.016l0.342,-0.014l0.342,-0.012l0.34,-0.01l0.343,-0.008l0.344,-0.005l0.343,-0.003l0.343,-0.001l0.343,0.001Zm-0.592,14.999l-0.248,0.003l-0.247,0.004l-0.248,0.005l-0.247,0.007l-0.246,0.009l-0.246,0.01l-0.246,0.012l-0.246,0.013l-0.245,0.015l-0.244,0.016l-0.244,0.018l-0.244,0.019l-0.243,0.021l-0.243,0.022l-0.243,0.024l-0.242,0.026l-0.241,0.027l-0.241,0.028l-0.241,0.03l-0.24,0.031l-0.24,0.033l-0.239,0.034l-0.239,0.036l-0.238,0.037l-0.238,0.039l-0.237,0.04l-0.237,0.042l-0.236,0.043l-0.236,0.044l-0.235,0.046l-0.235,0.047l-0.234,0.049l-0.234,0.05l-0.233,0.052l-0.233,0.053l-0.232,0.054l-0.232,0.056l-0.231,0.057l-0.23,0.059l-0.23,0.06l-0.23,0.061l-0.229,0.063l-0.228,0.064l-0.228,0.066l-0.227,0.066l-0.226,0.069l-0.226,0.069l-0.226,0.071l-0.224,0.072l-0.225,0.074l-0.223,0.075l-0.223,0.076l-0.222,0.078l-0.222,0.079l-0.221,0.08l-0.221,0.082l-0.219,0.082l-0.22,0.085l-0.218,0.085l-0.218,0.087l-0.217,0.088l-0.217,0.089l-0.216,0.091l-0.215,0.092l-0.215,0.093l-0.213,0.094l-0.214,0.096l-0.212,0.097l-0.212,0.098l-0.211,0.099l-0.21,0.101l-0.21,0.102l-0.209,0.103l-0.209,0.105l-0.207,0.105l-0.207,0.107l-0.206,0.108l-0.205,0.109l-0.205,0.111l-0.204,0.111l-0.203,0.113l-0.203,0.114l-0.201,0.115l-0.201,0.117l-0.2,0.117l-0.199,0.119l-0.199,0.12l-0.198,0.121l-0.197,0.122l-0.196,0.123l-0.195,0.125l-0.195,0.125l-0.194,0.127l-0.193,0.128l-0.192,0.129l-0.191,0.13l-0.191,0.132l-0.189,0.132l-0.189,0.134l-0.188,0.134l-0.188,0.136l-0.186,0.137l-0.185,0.137l-0.185,0.139l-0.184,0.141l-0.183,0.141l-0.182,0.142l-0.181,0.143l-0.18,0.144l-0.179,0.146l-0.179,0.146l-0.177,0.148l-0.177,0.148l-0.176,0.15l-0.175,0.15l-0.174,0.152l-0.173,0.153l-0.172,0.153l-0.171,0.155l-0.17,0.156l-0.17,0.156l-0.168,0.158l-0.167,0.159l-0.167,0.159l-0.165,0.161l-0.165,0.162l-0.164,0.162l-0.162,0.164l-0.162,0.164l-0.161,0.166l-0.159,0.166l-0.159,0.168l-0.158,0.168l-0.156,0.17l-0.156,0.17l-0.155,0.171l-0.153,0.172l-0.153,0.173l-0.152,0.174l-0.15,0.175l-0.15,0.176l-0.148,0.176l-0.148,0.178l-0.146,0.178l-0.145,0.18l-0.145,0.18l-0.143,0.181l-0.142,0.182l-0.141,0.183l-0.14,0.184l-0.139,0.185l-0.138,0.185l-0.137,0.186l-0.136,0.188l-0.134,0.188l-0.134,0.188l-0.132,0.19l-0.132,0.191l-0.13,0.191l-0.129,0.192l-0.128,0.193l-0.126,0.194l-0.126,0.195l-0.125,0.195l-0.123,0.196l-0.122,0.197l-0.121,0.198l-0.12,0.198l-0.119,0.2l-0.117,0.2l-0.117,0.201l-0.115,0.201l-0.114,0.203l-0.113,0.203l-0.111,0.204l-0.111,0.204l-0.109,0.206l-0.108,0.206l-0.107,0.207l-0.105,0.207l-0.105,0.209l-0.103,0.209l-0.102,0.209l-0.1,0.211l-0.1,0.211l-0.098,0.212l-0.097,0.212l-0.096,0.213l-0.094,0.214l-0.093,0.215l-0.092,0.215l-0.091,0.216l-0.089,0.217l-0.088,0.217l-0.087,0.218l-0.085,0.218l-0.084,0.219l-0.083,0.22l-0.082,0.221l-0.08,0.221l-0.079,0.222l-0.078,0.222l-0.076,0.223l-0.075,0.223l-0.073,0.224l-0.073,0.225l-0.071,0.226l-0.069,0.226l-0.068,0.226l-0.067,0.227l-0.066,0.228l-0.064,0.228l-0.063,0.229l-0.061,0.229l-0.06,0.23l-0.059,0.231l-0.057,0.231l-0.056,0.232l-0.054,0.232l-0.053,0.233l-0.052,0.233l-0.05,0.234l-0.049,0.234l-0.047,0.235l-0.046,0.235l-0.044,0.236l-0.043,0.236l-0.042,0.237l-0.04,0.237l-0.039,0.238l-0.037,0.238l-0.036,0.239l-0.034,0.239l-0.033,0.24l-0.031,0.24l-0.03,0.241l-0.028,0.241l-0.027,0.241l-0.026,0.242l-0.023,0.243l-0.023,0.243l-0.021,0.243l-0.019,0.244l-0.018,0.244l-0.016,0.244l-0.015,0.245l-0.013,0.246l-0.012,0.245l-0.01,0.247l-0.009,0.246l-0.007,0.247l-0.005,0.247l-0.004,0.248l-0.002,0.248l-0.001,0.249l0.001,0.248l0.002,0.248l0.004,0.248l0.005,0.247l0.007,0.247l0.009,0.247l0.01,0.246l0.012,0.246l0.013,0.245l0.015,0.245l0.016,0.245l0.018,0.244l0.019,0.244l0.021,0.243l0.023,0.243l0.023,0.242l0.026,0.242l0.027,0.242l0.028,0.241l0.03,0.24l0.031,0.241l0.033,0.239l0.034,0.24l0.036,0.238l0.037,0.239l0.039,0.237l0.04,0.238l0.042,0.236l0.043,0.237l0.044,0.236l0.046,0.235l0.047,0.235l0.049,0.234l0.05,0.234l0.052,0.233l0.053,0.233l0.054,0.232l0.056,0.231l0.057,0.232l0.059,0.23l0.06,0.23l0.061,0.229l0.063,0.229l0.064,0.229l0.066,0.227l0.067,0.227l0.068,0.227l0.069,0.226l0.071,0.225l0.073,0.225l0.073,0.224l0.075,0.224l0.076,0.223l0.078,0.222l0.079,0.222l0.08,0.221l0.082,0.22l0.083,0.22l0.084,0.219l0.085,0.219l0.087,0.218l0.088,0.217l0.089,0.216l0.091,0.216l0.092,0.216l0.093,0.214l0.094,0.214l0.096,0.213l0.097,0.213l0.098,0.212l0.1,0.211l0.1,0.21l0.102,0.21l0.103,0.209l0.105,0.208l0.105,0.208l0.107,0.207l0.108,0.206l0.109,0.205l0.111,0.205l0.111,0.204l0.113,0.203l0.114,0.202l0.115,0.202l0.117,0.201l0.117,0.2l0.119,0.199l0.12,0.199l0.121,0.197l0.122,0.197l0.123,0.197l0.125,0.195l0.126,0.195l0.126,0.193l0.128,0.193l0.129,0.193l0.13,0.191l0.132,0.19l0.132,0.19l0.134,0.189l0.134,0.188l0.136,0.187l0.137,0.186l0.138,0.186l0.139,0.185l0.14,0.183l0.141,0.183l0.142,0.182l0.143,0.181l0.145,0.181l0.145,0.179l0.146,0.178l0.148,0.178l0.148,0.177l0.15,0.176l0.15,0.174l0.152,0.174l0.153,0.173l0.153,0.173l0.155,0.171l0.156,0.17l0.156,0.169l0.158,0.169l0.159,0.167l0.159,0.167l0.161,0.165l0.162,0.165l0.162,0.163l0.164,0.163l0.165,0.161l0.165,0.161l0.167,0.16l0.167,0.158l0.168,0.158l0.17,0.157l0.17,0.156l0.171,0.154l0.172,0.154l0.173,0.153l0.174,0.151l0.175,0.151l0.176,0.149l0.177,0.149l0.177,0.147l0.179,0.147l0.179,0.145l0.18,0.144l0.181,0.144l0.182,0.142l0.183,0.141l0.184,0.14l0.185,0.139l0.185,0.138l0.186,0.137l0.188,0.135l0.188,0.135l0.189,0.133l0.189,0.133l0.191,0.131l0.191,0.13l0.192,0.129l0.193,0.128l0.194,0.127l0.195,0.126l0.195,0.124l0.196,0.123l0.197,0.123l0.198,0.121l0.199,0.12l0.199,0.118l0.2,0.118l0.201,0.116l0.201,0.115l0.203,0.114l0.203,0.113l0.204,0.112l0.205,0.11l0.205,0.11l0.206,0.108l0.207,0.106l0.207,0.106l0.209,0.104l0.209,0.103l0.21,0.102l0.21,0.101l0.211,0.099l0.212,0.099l0.212,0.097l0.214,0.095l0.213,0.095l0.215,0.093l0.215,0.092l0.216,0.09l0.217,0.09l0.217,0.088l0.218,0.086l0.218,0.086l0.22,0.084l0.219,0.083l0.221,0.081l0.221,0.081l0.222,0.079l0.222,0.077l0.223,0.076l0.223,0.075l0.225,0.074l0.224,0.072l0.226,0.071l0.226,0.07l0.226,0.068l0.227,0.067l0.228,0.065l0.228,0.064l0.229,0.063l0.23,0.062l0.23,0.06l0.23,0.058l0.231,0.057l0.232,0.056l0.232,0.055l0.233,0.053l0.233,0.051l0.234,0.05l0.234,0.049l0.235,0.048l0.235,0.045l0.236,0.045l0.236,0.043l0.237,0.042l0.237,0.04l0.238,0.038l0.238,0.038l0.239,0.035l0.239,0.035l0.24,0.032l0.24,0.032l0.241,0.03l0.241,0.028l0.241,0.027l0.242,0.025l0.243,0.024l0.243,0.022l0.243,0.021l0.244,0.02l0.244,0.017l0.244,0.017l0.245,0.015l0.246,0.013l0.246,0.011l0.246,0.011l0.246,0.008l0.247,0.007l0.248,0.006l0.247,0.004l0.248,0.002l0.249,0.001l0.248,-0.001l0.248,-0.002l0.248,-0.004l0.247,-0.006l0.247,-0.007l0.247,-0.008l0.246,-0.011l0.246,-0.011l0.245,-0.013l0.245,-0.015l0.245,-0.017l0.244,-0.017l0.244,-0.02l0.243,-0.021l0.243,-0.022l0.242,-0.024l0.242,-0.025l0.242,-0.027l0.241,-0.028l0.241,-0.03l0.24,-0.032l0.239,-0.032l0.24,-0.035l0.238,-0.035l0.239,-0.038l0.237,-0.038l0.238,-0.04l0.237,-0.042l0.236,-0.043l0.236,-0.045l0.235,-0.045l0.235,-0.048l0.234,-0.049l0.234,-0.05l0.233,-0.051l0.233,-0.053l0.232,-0.055l0.232,-0.056l0.231,-0.057l0.23,-0.058l0.23,-0.06l0.23,-0.062l0.228,-0.063l0.229,-0.064l0.227,-0.065l0.227,-0.067l0.227,-0.068l0.226,-0.07l0.225,-0.071l0.225,-0.072l0.224,-0.074l0.224,-0.075l0.223,-0.076l0.222,-0.077l0.222,-0.079l0.221,-0.081l0.22,-0.081l0.22,-0.083l0.219,-0.084l0.219,-0.086l0.218,-0.086l0.217,-0.088l0.217,-0.09l0.215,-0.09l0.216,-0.092l0.214,-0.093l0.214,-0.095l0.213,-0.095l0.213,-0.097l0.212,-0.099l0.211,-0.099l0.21,-0.101l0.21,-0.102l0.209,-0.103l0.208,-0.104l0.208,-0.106l0.207,-0.106l0.206,-0.108l0.205,-0.11l0.205,-0.11l0.204,-0.112l0.203,-0.113l0.202,-0.114l0.202,-0.115l0.201,-0.116l0.2,-0.118l0.199,-0.118l0.199,-0.12l0.198,-0.121l0.196,-0.123l0.197,-0.123l0.195,-0.124l0.195,-0.126l0.193,-0.127l0.193,-0.128l0.193,-0.129l0.191,-0.13l0.191,-0.131l0.189,-0.133l0.189,-0.133l0.188,-0.135l0.187,-0.135l0.187,-0.137l0.185,-0.138l0.185,-0.139l0.183,-0.14l0.183,-0.141l0.182,-0.142l0.181,-0.144l0.181,-0.144l0.179,-0.145l0.179,-0.147l0.177,-0.147l0.177,-0.149l0.176,-0.149l0.175,-0.151l0.173,-0.151l0.174,-0.153l0.172,-0.154l0.171,-0.154l0.17,-0.156l0.169,-0.157l0.169,-0.158l0.167,-0.158l0.167,-0.16l0.165,-0.161l0.165,-0.161l0.163,-0.163l0.163,-0.163l0.162,-0.165l0.16,-0.165l0.16,-0.167l0.159,-0.167l0.157,-0.169l0.157,-0.169l0.156,-0.17l0.154,-0.171l0.154,-0.173l0.153,-0.173l0.151,-0.174l0.151,-0.174l0.149,-0.176l0.149,-0.177l0.147,-0.178l0.147,-0.178l0.145,-0.179l0.145,-0.181l0.143,-0.181l0.142,-0.182l0.141,-0.183l0.14,-0.183l0.139,-0.185l0.138,-0.186l0.137,-0.186l0.135,-0.187l0.135,-0.188l0.134,-0.189l0.132,-0.19l0.131,-0.19l0.13,-0.191l0.129,-0.193l0.128,-0.193l0.127,-0.193l0.126,-0.195l0.124,-0.195l0.124,-0.197l0.122,-0.197l0.121,-0.197l0.12,-0.199l0.118,-0.199l0.118,-0.2l0.116,-0.201l0.116,-0.202l0.114,-0.202l0.112,-0.203l0.112,-0.204l0.11,-0.205l0.11,-0.205l0.108,-0.206l0.106,-0.207l0.106,-0.208l0.104,-0.208l0.104,-0.209l0.101,-0.21l0.101,-0.21l0.1,-0.211l0.098,-0.212l0.097,-0.213l0.095,-0.213l0.095,-0.214l0.093,-0.214l0.092,-0.216l0.09,-0.216l0.09,-0.216l0.088,-0.217l0.086,-0.218l0.086,-0.219l0.084,-0.219l0.083,-0.22l0.082,-0.22l0.08,-0.221l0.079,-0.222l0.077,-0.222l0.077,-0.223l0.075,-0.224l0.073,-0.224l0.072,-0.225l0.071,-0.225l0.07,-0.226l0.068,-0.227l0.067,-0.227l0.065,-0.227l0.065,-0.229l0.062,-0.229l0.062,-0.229l0.06,-0.23l0.058,-0.23l0.058,-0.232l0.055,-0.231l0.055,-0.232l0.053,-0.233l0.051,-0.233l0.051,-0.234l0.048,-0.234l0.048,-0.235l0.046,-0.235l0.044,-0.236l0.043,-0.237l0.042,-0.236l0.04,-0.238l0.038,-0.237l0.038,-0.239l0.035,-0.238l0.035,-0.24l0.033,-0.239l0.031,-0.241l0.03,-0.24l0.028,-0.241l0.027,-0.242l0.025,-0.242l0.024,-0.242l0.023,-0.243l0.02,-0.243l0.02,-0.244l0.018,-0.244l0.016,-0.245l0.015,-0.245l0.013,-0.245l0.012,-0.246l0.01,-0.246l0.008,-0.247l0.007,-0.247l0.006,-0.247l0.004,-0.248l0.002,-0.248l0.001,-0.248l-0.001,-0.249l-0.002,-0.248l-0.004,-0.248l-0.006,-0.247l-0.007,-0.247l-0.008,-0.246l-0.01,-0.247l-0.012,-0.245l-0.013,-0.246l-0.015,-0.245l-0.016,-0.244l-0.018,-0.244l-0.02,-0.244l-0.02,-0.243l-0.023,-0.243l-0.024,-0.243l-0.025,-0.242l-0.027,-0.241l-0.028,-0.241l-0.03,-0.241l-0.031,-0.24l-0.033,-0.24l-0.035,-0.239l-0.035,-0.239l-0.038,-0.238l-0.038,-0.238l-0.04,-0.237l-0.042,-0.237l-0.043,-0.236l-0.044,-0.236l-0.046,-0.235l-0.048,-0.235l-0.048,-0.234l-0.051,-0.234l-0.051,-0.233l-0.053,-0.233l-0.055,-0.232l-0.055,-0.232l-0.058,-0.231l-0.058,-0.231l-0.06,-0.23l-0.062,-0.229l-0.062,-0.229l-0.065,-0.228l-0.065,-0.228l-0.067,-0.227l-0.068,-0.226l-0.07,-0.226l-0.071,-0.226l-0.072,-0.225l-0.073,-0.224l-0.075,-0.223l-0.077,-0.223l-0.077,-0.222l-0.079,-0.222l-0.08,-0.221l-0.082,-0.221l-0.083,-0.22l-0.084,-0.219l-0.086,-0.218l-0.086,-0.218l-0.088,-0.217l-0.09,-0.217l-0.09,-0.216l-0.092,-0.215l-0.093,-0.215l-0.095,-0.214l-0.095,-0.213l-0.097,-0.212l-0.098,-0.212l-0.1,-0.211l-0.101,-0.211l-0.101,-0.209l-0.104,-0.209l-0.104,-0.209l-0.106,-0.207l-0.106,-0.207l-0.108,-0.206l-0.11,-0.206l-0.11,-0.204l-0.112,-0.204l-0.112,-0.203l-0.114,-0.203l-0.116,-0.201l-0.116,-0.201l-0.118,-0.2l-0.118,-0.2l-0.12,-0.198l-0.121,-0.198l-0.122,-0.197l-0.124,-0.196l-0.124,-0.195l-0.126,-0.195l-0.127,-0.194l-0.128,-0.193l-0.129,-0.192l-0.13,-0.191l-0.131,-0.191l-0.132,-0.19l-0.134,-0.188l-0.135,-0.188l-0.135,-0.188l-0.137,-0.186l-0.138,-0.185l-0.139,-0.185l-0.14,-0.184l-0.141,-0.183l-0.142,-0.182l-0.143,-0.181l-0.145,-0.18l-0.145,-0.18l-0.147,-0.178l-0.147,-0.178l-0.149,-0.176l-0.149,-0.176l-0.151,-0.175l-0.151,-0.174l-0.153,-0.173l-0.154,-0.172l-0.154,-0.171l-0.156,-0.17l-0.157,-0.17l-0.157,-0.168l-0.159,-0.168l-0.16,-0.166l-0.16,-0.166l-0.162,-0.164l-0.163,-0.164l-0.163,-0.162l-0.165,-0.162l-0.165,-0.161l-0.167,-0.159l-0.167,-0.159l-0.169,-0.158l-0.169,-0.156l-0.17,-0.156l-0.171,-0.155l-0.172,-0.153l-0.174,-0.153l-0.173,-0.152l-0.175,-0.15l-0.176,-0.15l-0.177,-0.148l-0.177,-0.148l-0.179,-0.146l-0.179,-0.146l-0.181,-0.144l-0.181,-0.143l-0.182,-0.142l-0.183,-0.141l-0.183,-0.141l-0.185,-0.139l-0.185,-0.137l-0.187,-0.137l-0.187,-0.136l-0.188,-0.134l-0.189,-0.134l-0.189,-0.132l-0.191,-0.132l-0.191,-0.13l-0.193,-0.129l-0.193,-0.128l-0.193,-0.127l-0.195,-0.125l-0.195,-0.125l-0.197,-0.123l-0.196,-0.122l-0.198,-0.121l-0.199,-0.12l-0.199,-0.119l-0.2,-0.117l-0.201,-0.117l-0.202,-0.115l-0.202,-0.114l-0.203,-0.113l-0.204,-0.111l-0.205,-0.111l-0.205,-0.109l-0.206,-0.108l-0.207,-0.107l-0.208,-0.105l-0.208,-0.105l-0.209,-0.103l-0.21,-0.102l-0.21,-0.101l-0.211,-0.099l-0.212,-0.098l-0.213,-0.097l-0.213,-0.096l-0.214,-0.094l-0.214,-0.093l-0.216,-0.092l-0.215,-0.091l-0.217,-0.089l-0.217,-0.088l-0.218,-0.087l-0.219,-0.085l-0.219,-0.085l-0.22,-0.082l-0.22,-0.082l-0.221,-0.08l-0.222,-0.079l-0.222,-0.078l-0.223,-0.076l-0.224,-0.075l-0.224,-0.074l-0.225,-0.072l-0.225,-0.071l-0.226,-0.069l-0.227,-0.069l-0.227,-0.066l-0.227,-0.066l-0.229,-0.064l-0.228,-0.063l-0.23,-0.061l-0.23,-0.06l-0.23,-0.059l-0.231,-0.057l-0.232,-0.056l-0.232,-0.054l-0.233,-0.053l-0.233,-0.052l-0.234,-0.05l-0.234,-0.049l-0.235,-0.047l-0.235,-0.046l-0.236,-0.044l-0.236,-0.043l-0.237,-0.042l-0.238,-0.04l-0.237,-0.039l-0.239,-0.037l-0.238,-0.036l-0.24,-0.034l-0.239,-0.033l-0.24,-0.031l-0.241,-0.03l-0.241,-0.028l-0.242,-0.027l-0.242,-0.026l-0.242,-0.024l-0.243,-0.022l-0.243,-0.021l-0.244,-0.019l-0.244,-0.018l-0.245,-0.016l-0.245,-0.015l-0.245,-0.013l-0.246,-0.012l-0.246,-0.01l-0.247,-0.009l-0.247,-0.007l-0.247,-0.005l-0.248,-0.004l-0.248,-0.003l-0.248,0l-0.249,0Z" style="fill:#4b535c;"/></g></svg>