<?xml version="1.0" encoding="UTF-8" standalone="no"?><!DOCTYPE svg PUBLIC "-//W3C//DTD SVG 1.1//EN" "http://www.w3.org/Graphics/SVG/1.1/DTD/svg11.dtd"><svg width="100%" height="100%" viewBox="0 0 576 174" version="1.1" xmlns="http://www.w3.org/2000/svg" xmlns:xlink="http://www.w3.org/1999/xlink" xml:space="preserve" xmlns:serif="http://www.serif.com/" style="fill-rule:evenodd;clip-rule:evenodd;stroke-linejoin:round;stroke-miterlimit:1.41421;"><g><path d="M28.521,94.31l-22.5,0l0,-15l22.5,0l0,15Zm30,0l-22.5,0l0,-15l22.5,0l0,15Zm30,0l-22.5,0l0,-15l22.5,0l0,15Zm30,0l-22.5,0l0,-15l22.5,0l0,15Zm30,0l-22.5,0l0,-15l22.5,0l0,15Zm30,0l-22.5,0l0,-15l22.5,0l0,15Zm30,0l-22.5,0l0,-15l22.5,0l0,15Zm30,0l-22.5,0l0,-15l22.5,0l0,15Zm30,0l-22.5,0l0,-15l22.5,0l0,15Zm30,0l-22.5,0l0,-15l22.5,0l0,15Zm30,0l-22.5,0l0,-15l22.5,0l0,15Zm30,0l-22.5,0l0,-15l22.5,0l0,15Z" style="fill:#4b535c;"/><g><path d="M493.456,167.598l-15,0l0,-161.577l15,0l0,161.577Z" style="fill:#4b535c;"/><rect x="407.487" y="79.31" width="161.577" height="15" style="fill:#4b535c;"/></g></g></svg>